<svg xmlns="http://www.w3.org/2000/svg" width="1024" height="1024" preserveAspectRatio="none" style="display:block" version="1.1" viewBox="-102 -102 2252 2252"><path fill="#fff" d="M 0 0 L 2048 0 L 2048 2048 L 0 2048 L 0 0 z"/><path fill="#052a4e" d="M 807.543 505.407 C 811.481 504.996 818.698 505.03 822.934 504.991 L 985.671 504.902 C 1014.4 504.895 1053.7 503.779 1081.88 505.878 C 1168.85 511.874 1250.7 549.174 1312.29 610.873 C 1378.37 676.492 1415.38 765.864 1415.04 858.988 C 1415.89 948.046 1381.14 1033.76 1318.52 1097.08 C 1258.85 1157.6 1179.71 1195.06 1095.08 1202.84 C 1069.32 1205.35 1045.97 1205.05 1020.09 1205.09 L 932.891 1205.17 L 932.921 1294 L 933.837 1295.34 C 941.598 1296.5 977.58 1295.55 987.413 1295.47 C 973.879 1316.48 955.557 1340.44 940.749 1360.98 C 916.471 1395.25 891.919 1429.31 867.094 1463.18 C 855.089 1479.45 843.278 1495.86 831.664 1512.4 C 825.011 1521.81 814.923 1536.83 807.82 1544.93 C 772.36 1493.47 732.721 1438.55 695.703 1387.84 L 654.504 1330.6 C 646.865 1319.91 636.797 1306.71 630.142 1295.76 C 648.946 1296.24 669.522 1295.71 688.452 1295.6 C 688.935 1255.77 688.336 1214.55 688.43 1174.57 L 688.605 805.878 L 688.622 677.761 C 688.612 662.255 687.74 624.732 689.822 610.644 C 693.038 588.607 702.403 567.924 716.841 550.968 C 740.649 522.851 771.121 508.283 807.543 505.407 z"/><path fill="#f55d3a" d="M 1070.7 894.651 C 1113.71 935.715 1162.4 978.542 1206.81 1018.77 C 1199.22 1028.35 1190.99 1039.26 1182.81 1048.19 C 1165.59 1033.88 1143.8 1012.47 1127.05 996.907 L 1044.69 921.489 C 1056.67 912.905 1062.71 906.909 1070.7 894.651 z"/><path fill="#f55d3a" d="M 1211.72 634.619 C 1217.56 638.715 1221.12 641.766 1226.49 646.481 C 1214.41 662.817 1197.71 681.906 1184.56 697.723 L 1130.17 764.087 L 1084.66 819.387 C 1078.6 826.731 1070.45 837.658 1064.12 844.261 L 1062.65 844.231 C 1055.95 837.953 1052.26 835.223 1044.68 829.963 C 1056.24 815.923 1069.01 802.614 1080.6 788.56 C 1115.83 745.845 1151.84 703.887 1188.4 662.306 C 1196.42 653.189 1203.31 643.476 1211.72 634.619 z"/><path fill="#f55d3a" d="M 1018.01 838.524 C 1038.3 835.214 1057.46 848.904 1060.9 869.172 C 1064.34 889.44 1050.77 908.683 1030.52 912.251 C 1010.09 915.852 990.639 902.135 987.169 881.683 C 983.698 861.232 997.54 841.864 1018.01 838.524 z"/><metadata><recraft-signature>{&quot;signed_by&quot;: &quot;recraft&quot;, &quot;signature_b64&quot;: &quot;d+E3xMHb6xHUORv5csvoQ7+UgToobaWo/xglhleUvN+o9N/ErkijDNVONq97G5iXUjuk9O2QKySG0LzB4NJQAg==&quot;, &quot;signing_algo&quot;: &quot;Ed25519&quot;, &quot;generation_timestamp&quot;: 1782492906, &quot;identifier&quot;: &quot;dcedfcff-b022-4d23-84c7-0201a28b88c6&quot;}</recraft-signature></metadata></svg>